<svg  viewBox="0 0 56 56" fill="none" xmlns="http://www.w3.org/2000/svg">
  <path id='btn' d="M30.9576 26.3462V22.8846C30.9576 21.2915 29.6334 20 28 20C26.3666 20 25.0424 21.2915 25.0424 22.8846V26.3462M33.9988 24.8133L34.995 34.044C35.0502 34.555 34.6394 35 34.1126 35H21.8874C21.3606 35 20.9498 34.555 21.005 34.044L22.0012 24.8133C22.0487 24.3728 22.4295 24.0385 22.8836 24.0385H33.1164C33.5705 24.0385 33.9513 24.3728 33.9988 24.8133ZM25.3382 26.3462C25.3382 26.5055 25.2058 26.6346 25.0424 26.6346C24.8791 26.6346 24.7467 26.5055 24.7467 26.3462C24.7467 26.1868 24.8791 26.0577 25.0424 26.0577C25.2058 26.0577 25.3382 26.1868 25.3382 26.3462ZM31.2533 26.3462C31.2533 26.5055 31.1209 26.6346 30.9576 26.6346C30.7942 26.6346 30.6618 26.5055 30.6618 26.3462C30.6618 26.1868 30.7942 26.0577 30.9576 26.0577C31.1209 26.0577 31.2533 26.1868 31.2533 26.3462Z"  stroke="#F4CE47" stroke-width="1.5" stroke-linecap="round" stroke-linejoin="round"/>

  <path id='arrowRight' fill-rule="evenodd" clip-rule="evenodd" d="M0.950102 34C0.950102 32.3934 2.25255 31.0909 3.85919 31.0909L79.1175 31.0909L53.2281 5.20147C52.092 4.0654 52.092 2.22346 53.2281 1.08739C54.3642 -0.0486763 56.2061 -0.0486763 57.3422 1.08739L88.1977 31.943C89.3338 33.079 89.3338 34.921 88.1977 36.057L57.3422 66.9126C56.2061 68.0487 54.3642 68.0487 53.2281 66.9126C52.092 65.7765 52.092 63.9346 53.2281 62.7985L79.1175 36.9091L3.85919 36.9091C2.25255 36.9091 0.950102 35.6066 0.950102 34Z" />

  <path id='find' d="M11.9996 305.5L97.7452 219.754M97.7452 219.754C75.3508 197.36 61.4996 166.422 61.4996 132.25C61.4996 63.9043 116.904 8.49951 185.25 8.49951C253.595 8.49951 309 63.9043 309 132.25C309 200.595 253.595 256 185.25 256C151.077 256 120.14 242.148 97.7452 219.754Z" stroke-opacity="0.38" stroke-width="16" stroke-linecap="square" stroke-linejoin="round"/>
</svg>
1x

</svg>

</svg>
