<svg width="56" height="56" viewBox="0 0 56 56" fill="none" xmlns="http://www.w3.org/2000/svg">
<path id='btn' d="M30.9576 26.3462V22.8846C30.9576 21.2915 29.6334 20 28 20C26.3666 20 25.0424 21.2915 25.0424 22.8846V26.3462M33.9988 24.8133L34.995 34.044C35.0502 34.555 34.6394 35 34.1126 35H21.8874C21.3606 35 20.9498 34.555 21.005 34.044L22.0012 24.8133C22.0487 24.3728 22.4295 24.0385 22.8836 24.0385H33.1164C33.5705 24.0385 33.9513 24.3728 33.9988 24.8133ZM25.3382 26.3462C25.3382 26.5055 25.2058 26.6346 25.0424 26.6346C24.8791 26.6346 24.7467 26.5055 24.7467 26.3462C24.7467 26.1868 24.8791 26.0577 25.0424 26.0577C25.2058 26.0577 25.3382 26.1868 25.3382 26.3462ZM31.2533 26.3462C31.2533 26.5055 31.1209 26.6346 30.9576 26.6346C30.7942 26.6346 30.6618 26.5055 30.6618 26.3462C30.6618 26.1868 30.7942 26.0577 30.9576 26.0577C31.1209 26.0577 31.2533 26.1868 31.2533 26.3462Z"  stroke="#F4CE47" stroke-width="1.5" stroke-linecap="round" stroke-linejoin="round"/>
</svg>
