<svg  viewBox="0 0 56 56" fill="none" xmlns="http://www.w3.org/2000/svg">
  <path id='btn' d="M30.9576 26.3462V22.8846C30.9576 21.2915 29.6334 20 28 20C26.3666 20 25.0424 21.2915 25.0424 22.8846V26.3462M33.9988 24.8133L34.995 34.044C35.0502 34.555 34.6394 35 34.1126 35H21.8874C21.3606 35 20.9498 34.555 21.005 34.044L22.0012 24.8133C22.0487 24.3728 22.4295 24.0385 22.8836 24.0385H33.1164C33.5705 24.0385 33.9513 24.3728 33.9988 24.8133ZM25.3382 26.3462C25.3382 26.5055 25.2058 26.6346 25.0424 26.6346C24.8791 26.6346 24.7467 26.5055 24.7467 26.3462C24.7467 26.1868 24.8791 26.0577 25.0424 26.0577C25.2058 26.0577 25.3382 26.1868 25.3382 26.3462ZM31.2533 26.3462C31.2533 26.5055 31.1209 26.6346 30.9576 26.6346C30.7942 26.6346 30.6618 26.5055 30.6618 26.3462C30.6618 26.1868 30.7942 26.0577 30.9576 26.0577C31.1209 26.0577 31.2533 26.1868 31.2533 26.3462Z"  stroke="#F4CE47" stroke-width="1.5" stroke-linecap="round" stroke-linejoin="round"/>

  <path id='arrowRight' fill-rule="evenodd" clip-rule="evenodd" d="M0.950102 34C0.950102 32.3934 2.25255 31.0909 3.85919 31.0909L79.1175 31.0909L53.2281 5.20147C52.092 4.0654 52.092 2.22346 53.2281 1.08739C54.3642 -0.0486763 56.2061 -0.0486763 57.3422 1.08739L88.1977 31.943C89.3338 33.079 89.3338 34.921 88.1977 36.057L57.3422 66.9126C56.2061 68.0487 54.3642 68.0487 53.2281 66.9126C52.092 65.7765 52.092 63.9346 53.2281 62.7985L79.1175 36.9091L3.85919 36.9091C2.25255 36.9091 0.950102 35.6066 0.950102 34Z" />

  <path id='find' d="M11.9996 305.5L97.7452 219.754M97.7452 219.754C75.3508 197.36 61.4996 166.422 61.4996 132.25C61.4996 63.9043 116.904 8.49951 185.25 8.49951C253.595 8.49951 309 63.9043 309 132.25C309 200.595 253.595 256 185.25 256C151.077 256 120.14 242.148 97.7452 219.754Z" stroke-opacity="0.38" stroke-width="16" stroke-linecap="square" stroke-linejoin="round"/>


  <path id='star' d="M36.1394 18.164C36.1394 18.3904 36.1394 18.6107 36.1272 18.8371C36.1272 18.9472 36.0293 19.039 35.9191 19.039H24.1767C21.4537 19.039 19.2508 21.248 19.2508 23.9649V35.7073C19.2508 35.8175 19.1652 35.9092 19.0489 35.9154C18.8225 35.9215 18.6022 35.9276 18.3758 35.9276C18.1494 35.9276 17.923 35.9276 17.7027 35.9154C17.5926 35.9154 17.5008 35.8175 17.5008 35.7073V23.9649C17.5008 21.2419 15.2918 19.039 12.5749 19.039H0.826365C0.716222 19.039 0.624436 18.9534 0.618317 18.8371C0.612198 18.6168 0.606079 18.3904 0.606079 18.164C0.606079 17.9376 0.606079 17.7112 0.618317 17.4909C0.618317 17.3808 0.716222 17.289 0.826365 17.289H12.5688C15.2918 17.289 17.4947 15.08 17.4947 12.3631V0.620676C17.4947 0.510534 17.5803 0.418748 17.6966 0.412629C17.923 0.40651 18.1433 0.400391 18.3697 0.400391C18.5961 0.400391 18.8225 0.400391 19.0428 0.412629C19.1529 0.412629 19.2447 0.510534 19.2447 0.620676V12.5712C19.2447 15.1779 21.3558 17.289 23.9625 17.289H35.913C36.0232 17.289 36.1149 17.3746 36.1211 17.4909C36.1272 17.7173 36.1333 17.9376 36.1333 18.164H36.1394Z" fill="#F4CE47"/>

  
  <g id='circle' clip-path="url(#clip0_655_1783)">
    <path d="M38.8711 6.14635L38.283 6.07307L39.0344 0L39.6861 0.0807193L39.0937 4.87608L39.0153 4.98654L38.8722 6.14635H38.8711ZM40.4608 6.4363C40.039 6.38426 39.7073 6.25256 39.4668 6.0412C39.2262 5.83091 39.0725 5.57707 39.0057 5.27968L38.8425 5.2595L38.9909 4.28343L39.1626 4.30468C39.1255 4.601 39.152 4.86015 39.241 5.08319C39.33 5.30623 39.4763 5.48254 39.6808 5.61212C39.8854 5.74169 40.1323 5.82454 40.4216 5.86065C40.6442 5.88826 40.8456 5.88401 41.0247 5.8479C41.2038 5.81179 41.3627 5.73532 41.5026 5.61743C41.6425 5.49953 41.7591 5.32854 41.8513 5.10337C41.9435 4.87821 42.0103 4.59994 42.0505 4.2675C42.0929 3.92338 42.0972 3.63237 42.0622 3.39446C42.0272 3.15655 41.9573 2.96431 41.8534 2.81668C41.7496 2.66905 41.6118 2.55647 41.4401 2.47999C41.2684 2.40352 41.0745 2.35148 40.8572 2.32493C40.5679 2.28882 40.3082 2.309 40.0783 2.38441C39.8483 2.45981 39.6639 2.59364 39.524 2.78482C39.3841 2.97599 39.2951 3.22559 39.2569 3.53359L39.0852 3.51235L39.1817 2.51186L39.3809 2.53629C39.5144 2.30156 39.7296 2.10401 40.0284 1.9447C40.3263 1.78538 40.6866 1.73228 41.1094 1.78432C41.7241 1.86079 42.1671 2.13163 42.4374 2.59789C42.7076 3.06415 42.7988 3.64724 42.7119 4.34822C42.6239 5.05558 42.3844 5.59937 41.9912 5.9796C41.598 6.35983 41.0882 6.51171 40.4608 6.43418V6.4363Z" fill="#F4CE47"/>
    <path d="M46.3198 7.81179C45.9054 7.66947 45.5758 7.45068 45.331 7.15329C45.0852 6.85697 44.9347 6.51073 44.8774 6.1135C44.8202 5.71734 44.8647 5.30631 45.0099 4.87935C45.1593 4.44176 45.3777 4.08702 45.6627 3.81406C45.9489 3.54217 46.2785 3.36373 46.6547 3.28089C47.0299 3.19698 47.4252 3.22672 47.8385 3.36904C48.2529 3.51137 48.5793 3.72909 48.8188 4.02436C49.0583 4.31856 49.2046 4.66055 49.2586 5.04928C49.3116 5.43801 49.2639 5.85116 49.1145 6.28875C48.9683 6.71465 48.7552 7.06833 48.4733 7.34766C48.1914 7.62699 47.8661 7.80967 47.4962 7.8957C47.1263 7.98173 46.7353 7.95305 46.3209 7.81073L46.3198 7.81179ZM46.5116 7.24994C47.0288 7.42731 47.4464 7.41032 47.7633 7.19684C48.0801 6.98336 48.3292 6.61269 48.5104 6.0827C48.6938 5.5474 48.7256 5.09814 48.6047 4.7349C48.485 4.37166 48.166 4.10189 47.6488 3.92452C47.1369 3.74927 46.7183 3.76627 46.3929 3.97656C46.0676 4.18686 45.8132 4.55965 45.6299 5.09495C45.4487 5.62494 45.4222 6.07314 45.5515 6.4385C45.6797 6.80493 45.9998 7.07576 46.5116 7.25101V7.24994Z" fill="#F4CE47"/>
    <path d="M51.9249 10.4114C51.5486 10.1873 51.271 9.90583 51.0908 9.56489C50.9106 9.22396 50.8333 8.85435 50.8576 8.455C50.882 8.05565 51.0092 7.66162 51.2392 7.27395C51.4744 6.87567 51.7606 6.57297 52.0955 6.3648C52.4304 6.15663 52.7907 6.05042 53.1744 6.04511C53.5591 6.0398 53.9395 6.14919 54.3158 6.37329C54.692 6.5974 54.9675 6.87779 55.1424 7.21554C55.3173 7.55328 55.3904 7.91758 55.3639 8.30843C55.3374 8.69929 55.206 9.09438 54.9707 9.49267C54.7408 9.88034 54.4599 10.182 54.1271 10.3986C53.7943 10.6153 53.4383 10.7268 53.0589 10.7353C52.6794 10.7438 52.3022 10.6355 51.9259 10.4124L51.9249 10.4114ZM52.2269 9.90052C52.6975 10.1798 53.1087 10.2478 53.4626 10.1044C53.8166 9.96106 54.1356 9.64774 54.4207 9.16661C54.709 8.6791 54.8319 8.24577 54.7874 7.8666C54.7439 7.48637 54.4875 7.15712 54.0169 6.87673C53.5517 6.60058 53.1383 6.53155 52.7769 6.67068C52.4156 6.80982 52.0902 7.12313 51.8019 7.60957C51.5168 8.09177 51.3992 8.52404 51.4511 8.90958C51.502 9.29406 51.7606 9.62437 52.2258 9.90158L52.2269 9.90052Z" fill="#F4CE47"/>
    <path d="M56.0048 13.1765L55.5173 12.7357L59.6092 8.19312L60.0967 8.63389L56.0048 13.1765ZM58.4063 15.3495L57.8245 14.8227L58.1986 12.4171L57.1166 11.4378L57.5076 11.0034L58.5971 11.989L60.8831 11.51L61.4448 12.0177L58.8313 12.5328L58.4074 15.3485L58.4063 15.3495Z" fill="#F4CE47"/>
    <path d="M62.5928 21.1452C62.3713 20.7671 62.2632 20.3858 62.2696 20.0003C62.2759 19.6148 62.3861 19.2536 62.5991 18.9148C62.8122 18.576 63.1132 18.2935 63.501 18.0641C63.8985 17.8294 64.2948 17.7019 64.688 17.6817C65.0812 17.6616 65.4479 17.7423 65.787 17.9228C66.1262 18.1045 66.407 18.3838 66.6285 18.7619C66.85 19.14 66.957 19.5181 66.9475 19.8983C66.938 20.2786 66.8277 20.6333 66.6158 20.9636C66.4038 21.2939 66.0997 21.5754 65.7012 21.8112C65.3133 22.0395 64.9222 22.168 64.5269 22.1967C64.1316 22.2254 63.7649 22.151 63.429 21.9758C63.093 21.7995 62.8132 21.5223 62.5917 21.1452H62.5928ZM63.1036 20.8436C63.3813 21.3162 63.7088 21.5743 64.0882 21.6189C64.4676 21.6635 64.8968 21.5446 65.379 21.2599C65.8655 20.9721 66.1813 20.6524 66.3265 20.2977C66.4706 19.944 66.4049 19.5308 66.1272 19.0582C65.8527 18.5909 65.5242 18.3317 65.1406 18.2786C64.7569 18.2255 64.3213 18.3434 63.8349 18.6302C63.3527 18.9148 63.0421 19.2377 62.9023 19.5988C62.7624 19.961 62.8291 20.3752 63.1036 20.8415V20.8436Z" fill="#F4CE47"/>
    <path d="M64.9045 25.7795L64.6755 25.1731L69.0483 23.513C69.3376 23.4026 69.6015 23.3611 69.8389 23.3888C70.0763 23.4153 70.2872 23.5151 70.4726 23.6851C70.657 23.8561 70.8086 24.0982 70.9273 24.4116C70.9506 24.4742 70.9729 24.5369 70.9941 24.6006C71.0153 24.6643 71.0375 24.727 71.0608 24.7897L70.5574 24.9808L70.3762 24.5029C70.2819 24.2522 70.1611 24.0897 70.0159 24.0143C69.8707 23.9389 69.6926 23.9421 69.4828 24.0218L69.0059 24.2034L68.8331 24.2884L64.9034 25.7795H64.9045ZM69.0324 25.5607L68.122 23.1519L68.6508 22.9512L69.5612 25.36L69.0324 25.5607Z" fill="#F4CE47"/>
    <path d="M66.7168 33.6465C66.6701 33.2355 66.7263 32.902 66.8874 32.6481C67.0474 32.3932 67.3632 32.2392 67.8349 32.1861L70.9591 31.8282L72.2012 31.86L72.2563 32.3412L67.8741 32.8436C67.6081 32.8744 67.4427 32.9604 67.376 33.1027C67.3103 33.245 67.2933 33.4617 67.3262 33.7516L67.394 34.3411L66.8683 34.4016C66.8471 34.3241 66.8217 34.22 66.7909 34.0883C66.7602 33.9566 66.7358 33.8101 66.7178 33.6465H66.7168ZM70.7154 33.9598L70.3921 31.1283L70.9538 31.0635L71.2771 33.895L70.7154 33.9598Z" fill="#F4CE47"/>
    <path d="M66.656 40.3997L66.6973 39.7529L69.3172 39.9196C69.8025 39.9504 70.1608 39.8803 70.395 39.7093C70.6281 39.5383 70.7595 39.225 70.7882 38.7694C70.8168 38.3254 70.7288 37.9781 70.5253 37.7275C70.3218 37.4768 69.9594 37.3345 69.438 37.3016L69.4486 37.1284L70.5285 37.2336L70.5179 37.4067C70.6536 37.4757 70.7903 37.5777 70.9281 37.7115C71.0658 37.8453 71.175 38.0206 71.2555 38.2362C71.3361 38.4518 71.3668 38.712 71.3477 39.0158C71.3234 39.4045 71.2237 39.7189 71.051 39.9579C70.8772 40.1968 70.6504 40.3657 70.3706 40.4634C70.0908 40.5611 69.7771 40.5994 69.4316 40.5771L66.6571 40.3997H66.656ZM66.8637 37.1359L66.9051 36.4795L72.9989 36.8682L72.9576 37.5246L66.8637 37.1359Z" fill="#F4CE47"/>
    <path d="M65.6646 44.5771C65.7886 44.1246 65.9878 43.772 66.2655 43.5203C66.5421 43.2675 66.8717 43.1114 67.2532 43.0519C67.6348 42.9924 68.0449 43.0232 68.4847 43.1432C68.9245 43.2632 69.2902 43.4523 69.5827 43.7093C69.8752 43.9664 70.0776 44.2722 70.1921 44.6291C70.3055 44.9849 70.3055 45.3715 70.1921 45.7889C70.0956 46.1415 69.9388 46.4442 69.7226 46.697C69.5053 46.9498 69.2319 47.1229 68.9012 47.2153C68.5706 47.3077 68.188 47.295 67.7545 47.176C67.6549 47.1484 67.5585 47.1187 67.4673 47.0879C67.3751 47.056 67.3009 47.0263 67.2458 46.9986L68.2198 43.43L68.6861 43.5574L67.8393 46.6588L67.7535 46.5218C68.1149 46.6524 68.4222 46.6981 68.6744 46.6609C68.9277 46.6227 69.1344 46.5154 69.2965 46.3391C69.4576 46.1628 69.5795 45.927 69.659 45.6338C69.8021 45.1113 69.7565 44.7045 69.5244 44.4135C69.2923 44.1225 68.9267 43.909 68.4286 43.772L68.2706 43.7284C67.9305 43.635 67.6252 43.6021 67.3529 43.6286C67.0816 43.6552 66.8516 43.7529 66.6629 43.9228C66.4753 44.0917 66.3302 44.3615 66.2295 44.7321C66.1108 45.1665 66.115 45.5043 66.2411 45.7443C66.3672 45.9843 66.5601 46.1394 66.8177 46.2106L66.8791 46.2276L66.7064 46.8616L66.6269 46.8404C66.3513 46.765 66.1235 46.6173 65.9444 46.3975C65.7653 46.1776 65.6487 45.9111 65.5957 45.5967C65.5427 45.2823 65.566 44.9435 65.6657 44.5792L65.6646 44.5771Z" fill="#F4CE47"/>
    <path d="M60.8435 54.7609L61.1625 54.2713L62.1396 54.9096L62.2785 54.9128L66.3163 57.5531L65.9581 58.1044L60.8435 54.7609ZM61.9669 52.8672C62.3124 52.3361 62.7564 52.044 63.3001 51.9888C63.8438 51.9336 64.414 52.1003 65.0085 52.4901C65.5988 52.8757 65.9835 53.3239 66.1637 53.8337C66.3428 54.3435 66.2654 54.8565 65.9305 55.3716C65.691 55.7391 65.4155 55.9844 65.1039 56.1066C64.7913 56.2298 64.5083 56.2627 64.2561 56.2064L64.1469 56.3742L63.315 55.7975L63.4093 55.652C63.6689 55.8219 63.9169 55.9143 64.1533 55.9313C64.3896 55.9473 64.6079 55.8963 64.8093 55.7763C65.0106 55.6573 65.1919 55.4725 65.3551 55.2218C65.4748 55.0381 65.5607 54.8565 65.6126 54.6759C65.6645 54.4954 65.6698 54.3148 65.6274 54.1353C65.585 53.9548 65.4844 53.7753 65.3265 53.5947C65.1675 53.4142 64.9439 53.2304 64.6535 53.0403C64.3737 52.8576 64.1183 52.728 63.8873 52.6537C63.6562 52.5793 63.4506 52.557 63.2715 52.5889C63.0913 52.6197 62.9281 52.6951 62.7819 52.8141C62.6356 52.933 62.5032 53.0838 62.3834 53.2676C62.2212 53.5172 62.1248 53.7593 62.0951 53.9951C62.0655 54.2298 62.1068 54.4539 62.2191 54.6653C62.3315 54.8767 62.5127 55.0646 62.7617 55.2271L62.6674 55.3727L61.8281 54.8565L61.9128 54.7269C61.7263 54.489 61.632 54.2086 61.6278 53.8857C61.6235 53.5628 61.738 53.223 61.9701 52.8661L61.9669 52.8672Z" fill="#F4CE47"/>
    <path d="M56.8318 59.1395L57.2483 58.7168L57.9425 59.4029L58.1173 59.5378L59.3308 60.7379C59.6116 61.0162 59.8787 61.1522 60.1331 61.1458C60.3863 61.1394 60.6651 60.9833 60.9682 60.6753C61.2586 60.38 61.4112 60.106 61.4271 59.8522C61.443 59.5983 61.3211 59.3424 61.0614 59.0864L60.9703 58.9961L61.4186 58.5405L61.4642 58.5851C61.6931 58.8113 61.8446 59.0683 61.9167 59.354C61.9898 59.6397 61.9792 59.9361 61.887 60.2419C61.7948 60.5478 61.6136 60.8378 61.3444 61.1107C61.0583 61.4007 60.7679 61.5834 60.4711 61.6588C60.1754 61.7342 59.8893 61.7225 59.6138 61.6259C59.3382 61.5281 59.0796 61.3603 58.8369 61.1203L56.8328 59.1374L56.8318 59.1395ZM58.4119 57.404C58.7023 57.1088 59.016 56.9356 59.353 56.8847C59.6901 56.8326 59.9942 56.942 60.2666 57.2107C60.4478 57.3902 60.5559 57.5846 60.5898 57.7928C60.6237 58.0009 60.593 58.225 60.4976 58.4651C60.4022 58.7051 60.2592 58.9568 60.0673 59.2202L59.0383 60.5765L58.6886 60.2303L59.672 58.9058C59.8935 58.6201 60.0218 58.3896 60.0578 58.2155C60.0928 58.0402 60.0218 57.866 59.8448 57.6908C59.6805 57.5283 59.5046 57.4635 59.3181 57.4975C59.1315 57.5315 58.9164 57.6717 58.6727 57.9181C58.4893 58.1039 58.3505 58.3164 58.2583 58.5543C58.165 58.7922 58.1417 59.0375 58.1862 59.2914C58.2307 59.5452 58.3802 59.798 58.6356 60.0508L57.7549 59.3593L57.8831 59.268C57.8174 59.0917 57.7898 58.8973 57.7983 58.6839C57.8079 58.4704 57.8619 58.2548 57.9615 58.037C58.0612 57.8193 58.2116 57.6079 58.4119 57.404Z" fill="#F4CE47"/>
    <path d="M53.8008 59.5952C53.8855 59.5368 53.9788 59.4816 54.0795 59.4295C54.1812 59.3785 54.2586 59.3445 54.3137 59.3286L54.6083 59.7577L54.1886 60.0477C54.0233 60.1613 53.9184 60.2696 53.8739 60.3705C53.8294 60.4714 53.8241 60.618 53.859 60.8081L54.035 61.6748L53.9216 61.3976L58.0834 64.0018L57.4984 64.4065L55.205 62.9408L54.1961 62.2961L54.1431 62.3322L54.4165 63.4857L55.0142 66.1239L54.4292 66.5286L53.2793 60.9653C53.2221 60.7316 53.2126 60.5288 53.2528 60.3567C53.2931 60.1847 53.3588 60.0392 53.451 59.9202C53.5432 59.8012 53.6587 59.6929 53.7986 59.5963L53.8008 59.5952Z" fill="#F4CE47"/>
    <path d="M32.6184 66.5678C33.0402 66.6187 33.372 66.7494 33.6136 66.9597C33.8542 67.17 34.0089 67.4227 34.0767 67.7201L34.2399 67.7403L34.0947 68.7164L33.9231 68.6951C33.9591 68.3988 33.9315 68.1397 33.8425 67.9166C33.7535 67.6946 33.6062 67.5183 33.4016 67.3887C33.1971 67.2592 32.9502 67.1774 32.6598 67.1423C32.4362 67.1158 32.2359 67.12 32.0567 67.1561C31.8776 67.1923 31.7187 67.2698 31.5788 67.3877C31.4389 67.5056 31.3234 67.6776 31.2322 67.9017C31.1411 68.1269 31.0754 68.4052 31.0351 68.7376C30.9938 69.0817 30.9906 69.3727 31.0256 69.6107C31.0616 69.8475 31.1315 70.0408 31.2354 70.1884C31.3403 70.3361 31.4781 70.4476 31.6498 70.5241C31.8215 70.6005 32.0154 70.6515 32.2327 70.6781C32.522 70.7131 32.7817 70.6929 33.0116 70.6165C33.2416 70.54 33.426 70.4062 33.5648 70.2139C33.7047 70.0228 33.7927 69.7721 33.8298 69.4641L34.0015 69.4853L33.9082 70.4858L33.709 70.4614C33.5765 70.6972 33.3614 70.8947 33.0636 71.0551C32.7658 71.2155 32.4054 71.2696 31.9836 71.2187C31.3689 71.1443 30.9249 70.8735 30.6536 70.4083C30.3823 69.9431 30.289 69.36 30.3738 68.658C30.4596 67.9506 30.6981 67.4057 31.0902 67.0245C31.4823 66.6421 31.9921 66.4902 32.6195 66.5656L32.6184 66.5678ZM34.2092 66.8524L34.7974 66.9236L34.0629 72.9987L33.4112 72.9201L33.9909 68.1237L34.0682 68.0133L34.2081 66.8524H34.2092Z" fill="#F4CE47"/>
    <path d="M26.6676 65.1776C27.0819 65.3199 27.4105 65.5398 27.6564 65.8361C27.9012 66.1325 28.0527 66.4798 28.11 66.8759C28.1672 67.2721 28.1227 67.6831 27.9764 68.1101C27.827 68.5477 27.6087 68.9024 27.3236 69.1743C27.0374 69.4462 26.7068 69.6236 26.3316 69.7075C25.9564 69.7914 25.5611 69.7616 25.1478 69.6193C24.7345 69.477 24.407 69.2582 24.1675 68.964C23.928 68.6698 23.7817 68.3278 23.7277 67.9391C23.6747 67.5503 23.7224 67.1372 23.8718 66.6996C24.0181 66.2737 24.2321 65.92 24.5141 65.6407C24.796 65.3614 25.1224 65.1787 25.4912 65.0927C25.8611 65.0077 26.2521 65.0353 26.6665 65.1776H26.6676ZM26.4757 65.7395C25.9586 65.5621 25.541 65.5791 25.2241 65.7926C24.9072 66.005 24.6582 66.3767 24.477 66.9067C24.2936 67.442 24.2618 67.8913 24.3816 68.2545C24.5013 68.6178 24.8203 68.8875 25.3375 69.066C25.8494 69.2423 26.268 69.2242 26.5934 69.015C26.9187 68.8047 27.1731 68.4319 27.3564 67.8966C27.5377 67.3666 27.5642 66.9184 27.4359 66.553C27.3077 66.1866 26.9876 65.9158 26.4757 65.7405V65.7395Z" fill="#F4CE47"/>
    <path d="M20.962 62.516C21.3372 62.7412 21.6138 63.0248 21.7929 63.3657C21.971 63.7066 22.0473 64.0773 22.0208 64.4767C21.9943 64.876 21.866 65.269 21.635 65.6556C21.3976 66.0528 21.1115 66.3545 20.7755 66.5605C20.4395 66.7665 20.0792 66.8717 19.6945 66.8749C19.3098 66.8781 18.9304 66.7676 18.5552 66.5424C18.1801 66.3173 17.9056 66.0358 17.7328 65.697C17.5601 65.3593 17.4869 64.9939 17.5156 64.6031C17.5442 64.2122 17.6767 63.8182 17.914 63.4209C18.1451 63.0343 18.428 62.7338 18.7619 62.5192C19.0957 62.3047 19.4529 62.1942 19.8312 62.1868C20.2106 62.1804 20.5879 62.2898 20.9631 62.515L20.962 62.516ZM20.6579 63.0248C20.1884 62.7433 19.7772 62.6732 19.4232 62.8155C19.0692 62.9579 18.7481 63.2691 18.4609 63.7502C18.1705 64.2356 18.0465 64.6689 18.0879 65.0491C18.1302 65.4294 18.3857 65.7597 18.8541 66.0422C19.3183 66.3205 19.7305 66.3916 20.093 66.2536C20.4554 66.1155 20.7808 65.8043 21.0712 65.3189C21.3584 64.8378 21.4771 64.4055 21.4273 64.021C21.3775 63.6366 21.121 63.3041 20.6568 63.0258L20.6579 63.0248Z" fill="#F4CE47"/>
    <path d="M14.4866 57.5361L15.0663 58.0651L14.6806 60.4686L15.7584 61.4531L15.3652 61.8854L14.281 60.8945L11.9929 61.3629L11.4333 60.852L14.0489 60.3496L14.4866 57.5361ZM16.8775 59.7209L17.3629 60.1638L13.2488 64.6862L12.7634 64.2433L16.8775 59.7209Z" fill="#F4CE47"/>
    <path d="M10.3275 51.7146C10.5479 52.0938 10.6539 52.4761 10.6454 52.8606C10.6369 53.2461 10.5256 53.6072 10.3095 53.9439C10.0943 54.2806 9.79227 54.5631 9.40332 54.7894C9.00484 55.0219 8.60847 55.1473 8.21423 55.1664C7.82104 55.1844 7.45435 55.1027 7.11628 54.9189C6.7782 54.7352 6.49841 54.4548 6.27904 54.0756C6.0586 53.6965 5.95474 53.3173 5.96534 52.9371C5.97699 52.5568 6.08933 52.2031 6.30235 51.8739C6.51537 51.5446 6.82165 51.2643 7.2212 51.0317C7.61014 50.8054 8.00227 50.678 8.39757 50.6514C8.79394 50.6249 9.15851 50.7003 9.49446 50.8787C9.82936 51.0571 10.107 51.3354 10.3275 51.7135V51.7146ZM9.81558 52.013C9.54004 51.5393 9.21362 51.2791 8.83527 51.2324C8.45692 51.1857 8.02558 51.3036 7.54232 51.585C7.05375 51.8696 6.73687 52.1893 6.59062 52.542C6.44436 52.8956 6.50901 53.3088 6.7835 53.7825C7.05587 54.2509 7.38335 54.5121 7.76699 54.5674C8.15064 54.6226 8.58622 54.5068 9.07478 54.2222C9.55805 53.9407 9.87069 53.6189 10.0127 53.2578C10.1547 52.8967 10.089 52.4825 9.8177 52.0141L9.81558 52.013Z" fill="#F4CE47"/>
    <path d="M8.04407 47.0806L8.27087 47.6881L3.89072 49.3269C3.60034 49.4352 3.33645 49.4756 3.09905 49.448C2.86166 49.4193 2.65076 49.3195 2.46741 49.1485C2.28301 48.9764 2.13251 48.7343 2.01594 48.4199C1.99262 48.3572 1.97037 48.2935 1.95023 48.2298C1.93009 48.166 1.90784 48.1023 1.88452 48.0396L2.38793 47.8516L2.56597 48.3307C2.65923 48.5813 2.77899 48.7449 2.92418 48.8213C3.06938 48.8968 3.24742 48.8957 3.45726 48.8171L3.93523 48.6387L4.10798 48.5548L8.04407 47.0816V47.0806ZM3.9151 47.2802L4.81381 49.6933L4.28391 49.8919L3.3852 47.4789L3.9151 47.2813V47.2802Z" fill="#F4CE47"/>
    <path d="M6.2674 39.203C6.31191 39.6151 6.25362 39.9475 6.09254 40.2014C5.93039 40.4552 5.61457 40.6081 5.14295 40.6591L2.01761 41.0022L0.775524 40.9639L0.722534 40.4828L5.10798 40.0006C5.37399 39.9719 5.54038 39.8859 5.60715 39.7436C5.67391 39.6013 5.69193 39.3846 5.66014 39.0947L5.59549 38.5041L6.12115 38.4468C6.14235 38.5243 6.16672 38.6284 6.1964 38.7601C6.22607 38.8918 6.24938 39.0394 6.2674 39.203ZM2.26984 38.8706L2.5793 41.7032L2.01761 41.7648L1.70815 38.9322L2.26984 38.8706Z" fill="#F4CE47"/>
    <path d="M6.13705 35.7224L6.09254 36.3788L-0.000244141 35.9635L0.0442674 35.3072L6.13705 35.7224ZM6.35855 32.4597L6.31404 33.1065L3.69527 32.9281C3.20989 32.8951 2.85061 32.9631 2.61746 33.1341C2.38324 33.304 2.25077 33.6174 2.22003 34.073C2.19036 34.517 2.2762 34.8643 2.47863 35.116C2.68105 35.3677 3.04244 35.5111 3.56386 35.5472L3.5522 35.7203L2.47227 35.6099L2.48392 35.4367C2.34827 35.3666 2.21262 35.2647 2.0759 35.1298C1.93919 34.9949 1.83109 34.8197 1.75054 34.604C1.67106 34.3884 1.64138 34.1282 1.66152 33.8245C1.68802 33.4357 1.7887 33.1224 1.9625 32.8835C2.13737 32.6455 2.36417 32.4777 2.64501 32.3811C2.92586 32.2844 3.2385 32.2473 3.584 32.2717L6.35749 32.4607L6.35855 32.4597Z" fill="#F4CE47"/>
    <path d="M7.37447 28.2646C7.24836 28.716 7.047 29.0675 6.76827 29.3182C6.4906 29.5688 6.15995 29.7239 5.77842 29.7812C5.39689 29.8386 4.98569 29.8057 4.54693 29.6835C4.10818 29.5614 3.7436 29.3702 3.45216 29.1121C3.16178 28.854 2.96041 28.546 2.84807 28.1892C2.73574 27.8323 2.73786 27.4457 2.85443 27.0293C2.95193 26.6778 3.1109 26.3751 3.32922 26.1234C3.54754 25.8717 3.82203 25.7007 4.15375 25.6093C4.48546 25.519 4.86699 25.5339 5.30045 25.655C5.40007 25.6826 5.49545 25.7134 5.58765 25.7453C5.67986 25.7771 5.75298 25.8079 5.80809 25.8355L4.81506 29.3989L4.34981 29.2682L5.21249 26.1712L5.29727 26.3082C4.93694 26.1754 4.6296 26.1276 4.3763 26.1648C4.12301 26.202 3.91529 26.3082 3.75314 26.4834C3.59099 26.6597 3.46806 26.8934 3.38645 27.1865C3.24126 27.7091 3.28365 28.1159 3.51469 28.4079C3.74572 28.7 4.11029 28.9156 4.60734 29.0548L4.76525 29.0994C5.10439 29.1939 5.41067 29.2289 5.68198 29.2045C5.95434 29.1801 6.18432 29.0824 6.37297 28.9146C6.56161 28.7457 6.70786 28.477 6.81066 28.1074C6.93148 27.673 6.92936 27.3363 6.8043 27.0952C6.67925 26.8552 6.48742 26.698 6.22989 26.6257L6.16842 26.6088L6.34541 25.9757L6.4249 25.998C6.70044 26.0745 6.92618 26.2243 7.10529 26.4441C7.28333 26.665 7.39885 26.9327 7.44972 27.2471C7.50059 27.5615 7.47622 27.9013 7.37447 28.2646Z" fill="#F4CE47"/>
    <path d="M12.249 18.1066L11.9279 18.5941L10.9539 17.9505L10.8151 17.9462L6.79102 15.2857L7.15241 14.7366L12.25 18.1066H12.249ZM11.115 19.9939C10.7674 20.5229 10.3212 20.8128 9.77647 20.8659C9.23279 20.918 8.66368 20.748 8.07019 20.3561C7.482 19.9674 7.09942 19.5171 6.92243 19.0062C6.74544 18.4953 6.82599 17.9834 7.16406 17.4693C7.40464 17.1029 7.68231 16.8597 7.99495 16.7386C8.30759 16.6175 8.59055 16.5857 8.84385 16.643L8.95406 16.4752L9.78389 17.0562L9.68851 17.2006C9.42991 17.0296 9.18298 16.9351 8.94665 16.9181C8.71031 16.9011 8.49199 16.951 8.28957 17.07C8.08821 17.1879 7.90486 17.3716 7.74166 17.6212C7.62084 17.8039 7.53393 17.9855 7.48094 18.1661C7.42795 18.3466 7.4216 18.5261 7.46293 18.7067C7.50426 18.8872 7.60388 19.0678 7.76073 19.2484C7.91864 19.4289 8.1412 19.6148 8.43052 19.806C8.70925 19.9908 8.96466 20.1203 9.19464 20.1957C9.42462 20.2712 9.63022 20.2945 9.81038 20.2637C9.99055 20.2329 10.1538 20.1586 10.3011 20.0407C10.4484 19.9228 10.5819 19.772 10.7017 19.5893C10.8659 19.3408 10.9634 19.0986 10.9942 18.8639C11.0249 18.6292 10.9846 18.4051 10.8734 18.1926C10.7621 17.9802 10.5819 17.7922 10.3339 17.6276L10.4293 17.4832L11.2665 18.0036L11.1807 18.1332C11.3662 18.3721 11.4594 18.6525 11.4615 18.9754C11.4637 19.2983 11.3482 19.6371 11.1139 19.9929L11.115 19.9939Z" fill="#F4CE47"/>
    <path d="M16.2683 13.7603L15.8507 14.1809L15.1597 13.4916L14.9859 13.3567L13.7788 12.1512C13.499 11.8719 13.232 11.7349 12.9787 11.7391C12.7254 11.7444 12.4466 11.8995 12.1414 12.2054C11.85 12.4985 11.6953 12.7725 11.6794 13.0264C11.6624 13.2802 11.7832 13.5362 12.0418 13.7943L12.1319 13.8845L11.6815 14.3381L11.6359 14.2935C11.408 14.0662 11.2576 13.8091 11.1865 13.5224C11.1155 13.2367 11.1261 12.9403 11.2205 12.6345C11.3148 12.3286 11.496 12.0397 11.7663 11.7678C12.0535 11.4789 12.3449 11.2973 12.6417 11.224C12.9384 11.1507 13.2235 11.1624 13.499 11.2612C13.7746 11.3599 14.0321 11.5288 14.2737 11.7699L16.2693 13.7613L16.2683 13.7603ZM14.6796 15.4883C14.3882 15.7815 14.0734 15.9535 13.7364 16.0034C13.3994 16.0533 13.0952 15.9429 12.8239 15.6731C12.6427 15.4926 12.5367 15.2982 12.5039 15.089C12.471 14.8808 12.5039 14.6567 12.5993 14.4167C12.6957 14.1777 12.8398 13.927 13.0327 13.6636L14.0671 12.3116L14.4158 12.6599L13.4259 13.9791C13.2033 14.2637 13.074 14.4931 13.037 14.6673C13.0009 14.8415 13.0709 15.0167 13.2479 15.193C13.4111 15.3566 13.587 15.4214 13.7735 15.3885C13.96 15.3555 14.1762 15.2164 14.42 14.9711C14.6044 14.7852 14.7432 14.5738 14.8376 14.337C14.9319 14.1002 14.9573 13.8548 14.9139 13.601C14.8704 13.3471 14.722 13.0933 14.4677 12.8394L15.3452 13.5351L15.217 13.6254C15.2816 13.8017 15.3092 13.9971 15.2986 14.2095C15.288 14.423 15.2329 14.6386 15.1322 14.8553C15.0315 15.073 14.881 15.2833 14.6786 15.4862L14.6796 15.4883Z" fill="#F4CE47"/>
    <path d="M19.2956 13.3242C19.2098 13.3826 19.1165 13.4367 19.0158 13.4888C18.9141 13.5398 18.8357 13.5727 18.7806 13.5886L18.487 13.1585L18.9088 12.8696C19.0741 12.7559 19.1791 12.6487 19.2246 12.5478C19.2691 12.4469 19.2755 12.3014 19.2416 12.1102L19.0699 11.2435L19.1822 11.5207L15.031 8.8984L15.6181 8.49587L17.9052 9.97218L18.9109 10.6222L18.9639 10.5861L18.6947 9.43158L18.1076 6.79121L18.6947 6.38867L19.8213 11.9572C19.8775 12.1909 19.8859 12.3948 19.8446 12.5658C19.8033 12.7379 19.7365 12.8834 19.6454 13.0013C19.5532 13.1202 19.4366 13.2275 19.2967 13.3231L19.2956 13.3242Z" fill="#F4CE47"/>
    <path d="M29.4288 5.87245C29.9029 5.87245 30.2872 5.48728 30.2872 5.01215C30.2872 4.53702 29.9029 4.15186 29.4288 4.15186C28.9546 4.15186 28.5703 4.53702 28.5703 5.01215C28.5703 5.48728 28.9546 5.87245 29.4288 5.87245Z" fill="#F4CE47"/>
    <path d="M44.8526 68.2621C45.3267 68.2621 45.711 67.8769 45.711 67.4018C45.711 66.9267 45.3267 66.5415 44.8526 66.5415C44.3785 66.5415 43.9941 66.9267 43.9941 67.4018C43.9941 67.8769 44.3785 68.2621 44.8526 68.2621Z" fill="#F4CE47"/>
  </g>
</svg>


<svg xmlns="http://www.w3.org/2000/svg" width="400" height="200">
  <defs>
    <filter id="blur-filter">
      <feGaussianBlur in="SourceGraphic" stdDeviation="5" />
    </filter>
    <filter id="filter2">
      <feGaussianBlur in="SourceGraphic" stdDeviation="5" />
    </filter>
  </defs>
  <rect x="50" y="50" width="300" height="100" fill="blue" filter="url(#blur-filter)" />
</svg>
